<?xml version="1.0" encoding="UTF-8"?>
<svg xmlns="http://www.w3.org/2000/svg" xmlns:xlink="http://www.w3.org/1999/xlink" width="48px" height="48px" viewBox="0 0 48 48" version="1.1">
<g id="surface1">
<path style=" stroke:none;fill-rule:nonzero;fill:rgb(0%,0%,0%);fill-opacity:1;" d="M 11.949219 29.601562 C 10.417969 29.707031 8.972656 30.425781 8.078125 31.527344 C 7.363281 32.402344 7.0625 33.433594 7.210938 34.507812 C 7.34375 35.507812 7.015625 36.492188 6.300781 37.203125 C 3.996094 39.507812 2.082031 40.003906 0.863281 40.003906 C 0.84375 40.003906 0.816406 40 0.800781 40 C 0.457031 40 0.152344 40.222656 0.0390625 40.550781 C -0.0703125 40.878906 0.046875 41.242188 0.328125 41.449219 C 0.648438 41.683594 6.125 45.613281 11.503906 45.613281 C 13.683594 45.613281 15.847656 44.96875 17.648438 43.167969 C 20.707031 40.109375 20.910156 35.242188 18.113281 32.085938 C 16.476562 30.238281 14.449219 29.429688 11.949219 29.601562 Z M 11.949219 29.601562 "/>
<path style=" stroke:none;fill-rule:nonzero;fill:rgb(0%,0%,0%);fill-opacity:1;" d="M 46.535156 3.90625 L 46.296875 3.671875 C 44.59375 1.964844 41.828125 1.957031 40.003906 3.65625 L 38.96875 4.632812 L 41.445312 7.109375 C 41.757812 7.421875 41.757812 7.925781 41.445312 8.242188 C 41.289062 8.394531 41.082031 8.476562 40.878906 8.476562 C 40.675781 8.476562 40.46875 8.394531 40.3125 8.242188 L 37.804688 5.730469 L 36.636719 6.828125 L 39.179688 9.371094 C 39.492188 9.683594 39.492188 10.191406 39.179688 10.503906 C 39.023438 10.660156 38.820312 10.738281 38.613281 10.738281 C 38.410156 10.738281 38.207031 10.660156 38.050781 10.503906 L 35.472656 7.925781 L 14.074219 28.101562 C 16.101562 28.417969 17.863281 29.390625 19.3125 31.027344 C 21.015625 32.945312 21.789062 35.390625 21.667969 37.8125 L 46.550781 11.089844 C 48.488281 9.007812 48.484375 5.851562 46.535156 3.90625 Z M 46.535156 3.90625 "/>
</g>
</svg>
